<svg xmlns="http://www.w3.org/2000/svg" width="366" height="115" fill="none" viewBox="0 0 366 115"><path fill="url(#a)" d="M0 114.188V22.09h1.299l9.743 15.756v76.342zM0 7.472V.487h9.743l62.515 99.894v13.807h-5.52zm61.217 61.885V.487h11.041v84.95H70.96z"/><path fill="url(#b)" d="M85.41 90.636v-39.47q.164-7.473 7.145-14.62 8.12-8.445 19.973-8.608V38.17q-8.606 0-13.802 7.634-2.436 3.573-2.436 6.66v12.02h40.757v-12.02q0-7.797-7.956-12.183-4.222-2.436-8.769-2.436v-9.908q11.042 0 19.81 7.959 7.145 6.822 7.307 15.106V74.88H96.29v15.756q0 4.71 5.683 9.42 5.034 4.062 10.717 4.061v10.071q-14.451 0-22.895-11.857-4.384-6.336-4.384-11.695m34.912 23.552v-10.396q10.23 0 15.588-8.446 1.625-2.436 2.111-4.71l9.581 3.573q-3.247 11.532-13.965 16.893-6.17 3.086-13.315 3.086"/><path fill="url(#c)" d="M160.105 91.285V28.1h10.879v61.886q0 6.172 6.333 10.883 4.871 3.411 10.554 3.411V115q-15.588 0-23.707-12.02-4.059-6.172-4.059-11.695M194.854 115v-10.72q9.58 0 14.614-7.635 2.11-3.41 2.111-6.66V28.1h10.879v63.185q0 7.31-6.658 14.619-8.444 8.934-20.946 9.096"/><path fill="url(#d)" d="M235.448 114.188v-86.25h10.879V40.77q3.411-6.985 11.367-10.72 4.87-2.275 10.067-2.275h1.786l-2.598 10.396q-8.606.162-15.263 9.746-5.359 7.959-5.359 16.405v49.866z"/><path fill="url(#e)" d="M278.153 94.047v-7.635q.163-10.558 8.119-15.106 2.761-1.46 21.272-6.172 19.81-5.035 19.648-9.096v-2.924q0-5.197-2.923-9.258-4.709-6.497-12.503-6.497v-9.746q10.716 0 18.024 6.822 8.118 7.635 8.119 18.517v45.48q.162 5.036 4.221 5.36v10.233q-7.468 0-12.016-5.847l-.324.325q-6.495 5.523-18.024 5.522v-10.07q.974 0 2.111-.163 13.477-.974 13.477-14.456V68.87q-4.546 2.274-18.186 5.523-16.889 3.898-19.323 6.334-1.787 1.787-1.949 5.523v5.198q0 1.786.487 3.573 2.436 8.934 15.589 8.934v10.07q-9.906 0-17.212-5.035-8.607-6.172-8.607-14.943m1.137-44.83q-.162-7.635 6.008-13.807 7.794-7.797 18.836-7.797v10.07q-3.897 0-7.307 1.787-7.957 4.224-7.957 13.482z"/><path fill="url(#f)" d="M354.796 114.188V0H366v114.188z"/><defs><linearGradient id="a" x1="163.15" x2="163.15" y1="67.986" y2="181.351" gradientUnits="userSpaceOnUse"><stop stop-color="#010851"/><stop offset="1" stop-color="#fd809e"/></linearGradient><linearGradient id="b" x1="163.15" x2="163.15" y1="67.986" y2="181.351" gradientUnits="userSpaceOnUse"><stop stop-color="#010851"/><stop offset="1" stop-color="#fd809e"/></linearGradient><linearGradient id="c" x1="163.15" x2="163.15" y1="67.986" y2="181.351" gradientUnits="userSpaceOnUse"><stop stop-color="#010851"/><stop offset="1" stop-color="#fd809e"/></linearGradient><linearGradient id="d" x1="163.15" x2="163.15" y1="67.986" y2="181.351" gradientUnits="userSpaceOnUse"><stop stop-color="#010851"/><stop offset="1" stop-color="#fd809e"/></linearGradient><linearGradient id="e" x1="163.15" x2="163.15" y1="67.986" y2="181.351" gradientUnits="userSpaceOnUse"><stop stop-color="#010851"/><stop offset="1" stop-color="#fd809e"/></linearGradient><linearGradient id="f" x1="163.15" x2="163.15" y1="67.986" y2="181.351" gradientUnits="userSpaceOnUse"><stop stop-color="#010851"/><stop offset="1" stop-color="#fd809e"/></linearGradient></defs></svg>