<svg xmlns="http://www.w3.org/2000/svg" width="31" height="30" fill="none" viewBox="0 0 31 30"><path fill="#2d7dff" d="M15.877 5c.667.004 2.338.02 4.112.09l.63.028c1.787.085 3.572.23 4.457.476 1.181.332 2.11 1.3 2.424 2.528.5 1.948.562 5.752.57 6.673v.408c-.008.92-.07 4.724-.57 6.673-.319 1.232-1.247 2.2-2.424 2.528-.885.246-2.67.39-4.457.476l-.63.027c-1.774.071-3.445.087-4.112.09l-.293.002h-.026l-.293-.001c-1.413-.008-7.321-.072-9.2-.594-1.181-.332-2.11-1.3-2.423-2.528-.5-1.949-.562-5.752-.57-6.673v-.408c.008-.92.07-4.725.57-6.673.318-1.232 1.246-2.2 2.423-2.528 1.879-.522 7.787-.586 9.2-.594zm-2.806 5.624v8.75l7.5-4.375z"/></svg>