<svg xmlns="http://www.w3.org/2000/svg" width="31" height="30" fill="none" viewBox="0 0 31 30"><path fill="#2d7dff" d="M17.142 2.501c1.407.003 2.12.01 2.736.029l.242.007c.28.01.557.023.89.039 1.33.061 2.238.271 3.035.58a6.1 6.1 0 0 1 2.214 1.442 6.1 6.1 0 0 1 1.442 2.215c.308.796.519 1.704.581 3.034.015.334.027.61.037.89l.008.243c.018.616.027 1.33.03 2.736v2.569a99 99 0 0 1-.029 2.736l-.008.243c-.01.28-.022.556-.038.89-.061 1.33-.273 2.237-.58 3.034a6.1 6.1 0 0 1-1.443 2.215 6.1 6.1 0 0 1-2.214 1.441c-.797.309-1.704.52-3.035.582-.333.014-.61.026-.89.036l-.242.008c-.616.018-1.33.027-2.736.03h-2.569a99 99 0 0 1-2.736-.028l-.243-.008c-.28-.01-.556-.023-.89-.038-1.33-.062-2.236-.273-3.034-.582a6.1 6.1 0 0 1-2.215-1.442 6.1 6.1 0 0 1-1.441-2.214c-.31-.797-.52-1.704-.582-3.034-.015-.334-.027-.61-.036-.89l-.008-.243a99 99 0 0 1-.03-2.736v-2.57c.003-1.406.01-2.119.028-2.735l.008-.242c.01-.28.023-.557.038-.89.062-1.332.272-2.238.582-3.035a6.1 6.1 0 0 1 1.441-2.215A6.1 6.1 0 0 1 7.67 3.157c.797-.31 1.703-.519 3.034-.581.333-.015.61-.027.89-.037l.243-.008a99 99 0 0 1 2.736-.03zm-1.285 6.25a6.25 6.25 0 1 0 0 12.5 6.25 6.25 0 1 0 0-12.5m0 2.5a3.75 3.75 0 1 1 .001 7.499 3.75 3.75 0 0 1 0-7.5m6.563-4.375c-.862 0-1.563.7-1.563 1.561a1.564 1.564 0 0 0 3.125 0c0-.862-.702-1.563-1.562-1.561"/></svg>